<svg width="11" height="12" viewBox="0 0 11 12" fill="none" xmlns="http://www.w3.org/2000/svg">
<path d="M8.00828 1V3.22222M3.56384 1V3.22222M1.34161 5.44444H10.2305M1.34161 3.22222C1.34161 2.92754 1.45868 2.64492 1.66705 2.43655C1.87542 2.22817 2.15804 2.11111 2.45272 2.11111H9.11939C9.41408 2.11111 9.69669 2.22817 9.90506 2.43655C10.1134 2.64492 10.2305 2.92754 10.2305 3.22222V9.88889C10.2305 10.1836 10.1134 10.4662 9.90506 10.6746C9.69669 10.8829 9.41408 11 9.11939 11H2.45272C2.15804 11 1.87542 10.8829 1.66705 10.6746C1.45868 10.4662 1.34161 10.1836 1.34161 9.88889V3.22222ZM3.56384 7.66667H4.67495V8.77778H3.56384V7.66667Z" stroke="#BEBEBE" stroke-width="1.2" stroke-linecap="round" stroke-linejoin="round"/>
</svg>
