<svg width="19" height="19" viewBox="0 0 19 19" fill="none" xmlns="http://www.w3.org/2000/svg">
<path d="M7.13118 17.7993V12.466C7.13118 11.9945 7.31849 11.5423 7.65188 11.2089C7.98528 10.8755 8.43747 10.6882 8.90896 10.6882H10.6867C11.1582 10.6882 11.6104 10.8755 11.9438 11.2089C12.2772 11.5423 12.4645 11.9945 12.4645 12.466V17.7993M3.57563 9.79932H1.79785L9.79785 1.79932L17.7979 9.79932H16.0201V16.0215C16.0201 16.493 15.8328 16.9452 15.4994 17.2786C15.166 17.612 14.7138 17.7993 14.2423 17.7993H5.35341C4.88191 17.7993 4.42973 17.612 4.09633 17.2786C3.76293 16.9452 3.57563 16.493 3.57563 16.0215V9.79932Z" stroke="#212121" stroke-width="2" stroke-linecap="round" stroke-linejoin="round"/>
</svg>
