<svg width="17" height="19" viewBox="0 0 17 19" fill="none" xmlns="http://www.w3.org/2000/svg">
<path d="M5.79785 3.45405H3.79785C3.26742 3.45405 2.75871 3.64135 2.38364 3.97475C2.00857 4.30814 1.79785 4.76033 1.79785 5.23183V15.8985C1.79785 16.37 2.00857 16.8222 2.38364 17.1556C2.75871 17.489 3.26742 17.6763 3.79785 17.6763H13.7979C14.3283 17.6763 14.837 17.489 15.2121 17.1556C15.5871 16.8222 15.7979 16.37 15.7979 15.8985V5.23183C15.7979 4.76033 15.5871 4.30814 15.2121 3.97475C14.837 3.64135 14.3283 3.45405 13.7979 3.45405H11.7979M5.79785 3.45405C5.79785 2.98255 6.00857 2.53037 6.38364 2.19697C6.75871 1.86357 7.26742 1.67627 7.79785 1.67627H9.79785C10.3283 1.67627 10.837 1.86357 11.2121 2.19697C11.5871 2.53037 11.7979 2.98255 11.7979 3.45405M5.79785 3.45405C5.79785 3.92554 6.00857 4.37773 6.38364 4.71113C6.75871 5.04452 7.26742 5.23183 7.79785 5.23183H9.79785C10.3283 5.23183 10.837 5.04452 11.2121 4.71113C11.5871 4.37773 11.7979 3.92554 11.7979 3.45405M5.79785 14.1207V10.5652M8.79785 14.1207V13.2318M11.7979 14.1207V12.3429" stroke="#212121" stroke-width="2" stroke-linecap="round" stroke-linejoin="round"/>
</svg>
