<svg width="19" height="18" viewBox="0 0 19 18" fill="none" xmlns="http://www.w3.org/2000/svg">
<path d="M9.26832 7.07187V10.3794M9.26832 12.86H9.27659M7.91472 2.59932L1.21209 13.7902C1.07392 14.0295 1.0008 14.3008 1.00001 14.5771C0.999215 14.8534 1.07078 15.1251 1.20758 15.3652C1.34438 15.6053 1.54165 15.8053 1.77977 15.9455C2.01789 16.0857 2.28856 16.1611 2.56485 16.1642H15.9718C16.2479 16.161 16.5185 16.0856 16.7565 15.9454C16.9945 15.8053 17.1917 15.6053 17.3284 15.3654C17.4652 15.1254 17.5368 14.8539 17.5361 14.5777C17.5354 14.3015 17.4625 14.0303 17.3245 13.791L10.6219 2.5985C10.4809 2.36573 10.2822 2.17327 10.0451 2.03969C9.808 1.90612 9.54045 1.83594 9.26831 1.83594C8.99616 1.83594 8.72861 1.90612 8.4915 2.03969C8.25439 2.17327 8.05573 2.36573 7.91472 2.5985V2.59932Z" stroke="#797878" stroke-width="2" stroke-linecap="round" stroke-linejoin="round"/>
</svg>
