<svg width="19" height="16" viewBox="0 0 19 16" fill="none" xmlns="http://www.w3.org/2000/svg">
<path d="M1 6.14286H17.7143M4.71429 10.7857H4.72357M8.42857 10.7857H10.2857M1 4.28571C1 3.5469 1.29349 2.83834 1.81592 2.31592C2.33834 1.79349 3.0469 1.5 3.78571 1.5H14.9286C15.6674 1.5 16.3759 1.79349 16.8984 2.31592C17.4208 2.83834 17.7143 3.5469 17.7143 4.28571V11.7143C17.7143 12.4531 17.4208 13.1617 16.8984 13.6841C16.3759 14.2065 15.6674 14.5 14.9286 14.5H3.78571C3.0469 14.5 2.33834 14.2065 1.81592 13.6841C1.29349 13.1617 1 12.4531 1 11.7143V4.28571Z" stroke="#797878" stroke-width="2" stroke-linecap="round" stroke-linejoin="round"/>
</svg>
