<svg width="14" height="14" viewBox="0 0 14 14" fill="none" xmlns="http://www.w3.org/2000/svg">
<path d="M12.5311 12.5L8.86446 8.83333M1.53113 5.77778C1.53113 6.33954 1.64178 6.89581 1.85675 7.41481C2.07173 7.93382 2.38683 8.40539 2.78406 8.80262C3.18129 9.19985 3.65287 9.51495 4.17187 9.72993C4.69087 9.94491 5.24714 10.0556 5.80891 10.0556C6.37067 10.0556 6.92694 9.94491 7.44594 9.72993C7.96494 9.51495 8.43652 9.19985 8.83375 8.80262C9.23098 8.40539 9.54608 7.93382 9.76106 7.41481C9.97604 6.89581 10.0867 6.33954 10.0867 5.77778C10.0867 5.21601 9.97604 4.65975 9.76106 4.14074C9.54608 3.62174 9.23098 3.15016 8.83375 2.75293C8.43652 2.3557 7.96494 2.0406 7.44594 1.82563C6.92694 1.61065 6.37067 1.5 5.80891 1.5C5.24714 1.5 4.69087 1.61065 4.17187 1.82563C3.65287 2.0406 3.18129 2.3557 2.78406 2.75293C2.38683 3.15016 2.07173 3.62174 1.85675 4.14074C1.64178 4.65975 1.53113 5.21601 1.53113 5.77778Z" stroke="#BEBEBE" stroke-width="1.5" stroke-linecap="round" stroke-linejoin="round"/>
</svg>
