<svg width="16" height="16" viewBox="0 0 16 16" fill="none" xmlns="http://www.w3.org/2000/svg">
<path d="M1 2.75C1 2.28587 1.18437 1.84075 1.51256 1.51256C1.84075 1.18437 2.28587 1 2.75 1H13.25C13.7141 1 14.1592 1.18437 14.4874 1.51256C14.8156 1.84075 15 2.28587 15 2.75V4.5C15 4.96413 14.8156 5.40925 14.4874 5.73744C14.1592 6.06563 13.7141 6.25 13.25 6.25H2.75C2.28587 6.25 1.84075 6.06563 1.51256 5.73744C1.18437 5.40925 1 4.96413 1 4.5V2.75Z" stroke="#797878" stroke-width="2" stroke-linecap="round" stroke-linejoin="round"/>
<path d="M1 11.5C1 11.0359 1.18437 10.5908 1.51256 10.2626C1.84075 9.93437 2.28587 9.75 2.75 9.75H13.25C13.7141 9.75 14.1592 9.93437 14.4874 10.2626C14.8156 10.5908 15 11.0359 15 11.5V13.25C15 13.7141 14.8156 14.1592 14.4874 14.4874C14.1592 14.8156 13.7141 15 13.25 15H2.75C2.28587 15 1.84075 14.8156 1.51256 14.4874C1.18437 14.1592 1 13.7141 1 13.25V11.5Z" stroke="#797878" stroke-width="2" stroke-linecap="round" stroke-linejoin="round"/>
</svg>
