<svg width="142" height="36" viewBox="0 0 142 36" fill="none" xmlns="http://www.w3.org/2000/svg">
<path fill-rule="evenodd" clip-rule="evenodd" d="M121.737 5.45932C122.062 5.61549 122.38 5.79664 122.693 6.00279L124.454 2.62329C123.973 2.31095 123.486 2.0361 122.98 1.79872C122.474 1.56134 121.962 1.34895 121.437 1.16155C119.044 0.29325 117.189 0.280756 115.884 1.11782C114.578 1.95489 113.691 3.73521 113.216 6.4588L112.76 8.98249L112.292 11.5874C110.717 11.7935 109.206 12.1121 107.763 12.5556C105.052 13.3802 102.69 14.5671 100.666 16.1163C98.6488 17.6592 97.0746 19.5145 95.9564 21.6822C94.8382 23.8498 94.276 26.2735 94.276 28.9534C94.276 31.0335 94.8258 32.6452 95.9314 33.7821C97.0371 34.9253 98.5988 35.4937 100.623 35.4937C102.909 35.4937 104.877 34.8316 106.538 33.5073C107.869 32.4453 108.893 31.1085 109.631 29.4968H110.143C110.049 30.3839 110.049 31.1772 110.143 31.8581C110.261 32.6827 110.53 33.3636 110.955 33.9008C111.38 34.438 111.961 34.8316 112.698 35.1002C113.435 35.3626 114.341 35.4937 115.409 35.4937H117.077L117.758 31.652H116.421C115.746 31.652 115.215 31.527 114.815 31.2772C114.422 31.0273 114.159 30.6525 114.035 30.159C113.91 29.6593 113.916 29.0408 114.047 28.2912L117.339 9.64465L117.745 7.40206C117.939 6.2714 118.27 5.52179 118.745 5.14698C119.219 4.77218 119.882 4.74094 120.719 5.04703C121.062 5.17197 121.399 5.31564 121.724 5.46557L121.737 5.45932ZM110.524 21.4073C109.83 24.3932 108.794 26.7483 107.419 28.4599C105.889 30.3651 104.102 31.3147 102.047 31.3147C101.066 31.3147 100.31 31.0648 99.7732 30.5588C99.236 30.0528 98.9736 29.3344 98.9736 28.3974C98.9736 26.0112 99.6233 23.8685 100.929 21.9757C102.234 20.0767 103.996 18.5525 106.22 17.3969C107.856 16.5473 109.637 15.9789 111.548 15.6915L110.518 21.4135L110.524 21.4073ZM29.5223 15.4792C31.7337 12.7119 34.8008 11.3313 38.7238 11.3313V11.3251C41.3162 11.3251 43.3401 12.0872 44.7956 13.6114C46.2511 15.1356 46.982 17.2595 46.982 19.9831C46.982 24.8556 45.8826 28.6598 43.6775 31.3897C41.4724 34.1257 38.3989 35.4875 34.4635 35.4875C31.8711 35.4875 29.8471 34.7442 28.3916 33.2574C26.9361 31.7707 26.2053 29.703 26.2053 27.0544C26.2053 22.107 27.3109 18.2465 29.5223 15.4792ZM35.2756 31.3397C37.4682 31.3397 39.186 30.4214 40.4229 28.5849H40.4291C41.666 26.7483 42.2844 24.1996 42.2844 20.9326C42.2844 19.2335 41.9159 17.9092 41.185 16.9472C40.4479 15.9914 39.4172 15.5104 38.0866 15.5104C35.8315 15.5104 34.0699 16.4224 32.8018 18.2527C31.5338 20.083 30.9028 22.6255 30.9028 25.8925C30.9028 27.6104 31.2901 28.9472 32.0585 29.9029C32.8268 30.8587 33.9013 31.3397 35.2756 31.3397ZM18.2593 12.6679C19.0838 12.0683 20.0833 11.7684 21.2577 11.7684L21.2702 11.7747C24.1687 11.7747 25.2619 13.8236 24.5435 17.9215L21.4451 35.4874H16.7226L19.9272 17.303C20.0271 16.7283 19.9896 16.2848 19.8147 15.9725C19.6398 15.6539 19.315 15.4977 18.8465 15.4977C17.8782 15.4977 17.0474 16.2911 16.354 17.8715C15.8605 19.0022 15.4295 20.4764 15.0609 22.2755L14.6924 24.3556C14.6861 24.3931 14.6799 24.429 14.6736 24.4649C14.6674 24.5008 14.6611 24.5368 14.6549 24.5743V24.5493L12.6997 35.4874H8.74546L11.95 17.303C12.1687 16.1037 11.7876 15.504 10.8069 15.504C9.89487 15.504 9.08903 16.2973 8.3894 17.8777C7.80845 19.1896 7.31495 20.9511 6.90267 23.15L6.7465 24.0495L6.73558 24.1105C6.70807 24.264 6.68112 24.4142 6.65904 24.5743V24.5305L4.72255 35.4874H0L4.10412 12.1994H8.04583L7.87716 15.7351H8.28945C8.65801 14.3046 9.21397 13.2801 9.96983 12.6742C10.7257 12.0683 11.6377 11.7622 12.7059 11.7622C14.0677 11.7622 15.0235 12.2557 15.5732 13.2364C15.9167 13.8486 16.0792 14.6856 16.0604 15.7413H16.4227C16.8225 14.2921 17.4347 13.2676 18.2593 12.6679ZM63.7667 11.7686C61.8177 11.7686 60.1498 12.2683 58.7568 13.2615C57.3637 14.2548 56.4392 15.6728 55.9707 17.5031H55.5397L55.6834 12.2121H51.7979L47.6938 35.4938H52.4163L53.978 26.6171C54.534 24.031 55.2024 21.957 55.9832 20.4203C56.7953 18.8149 57.7073 17.6718 58.7193 16.9846C59.7313 16.2975 60.8307 15.9539 62.0113 15.9539C63.1232 15.9539 63.8979 16.2912 64.3289 16.9721C64.7599 17.653 64.8598 18.665 64.6225 20.0143L61.9239 35.5H66.6464L69.345 20.1954C69.8448 17.4156 69.6261 15.3167 68.6954 13.905C67.7646 12.4932 66.1217 11.7873 63.7667 11.7873V11.7686ZM90.5778 12.9553C91.7834 14.036 92.3893 15.5477 92.3893 17.478L92.3831 17.4905C92.3831 20.3577 90.9151 22.6191 87.9791 24.2745C85.1181 25.8861 81.1514 26.7544 76.0978 26.8918C76.2227 28.1849 76.7037 29.2156 77.5345 29.984C78.5028 30.8773 79.8333 31.3208 81.5324 31.3208C82.7006 31.3208 83.9562 31.1396 85.2868 30.7711C86.6173 30.4088 87.8979 29.8903 89.1285 29.2344L90.6465 32.9887C89.2097 33.7758 87.673 34.3942 86.0364 34.8315C84.3997 35.2687 82.8318 35.4874 81.3388 35.4874C78.3216 35.4874 75.9728 34.694 74.28 33.1136C72.5871 31.5332 71.7438 29.3281 71.7438 26.5045C71.7438 23.4624 72.3185 20.8013 73.4679 18.5337C74.6173 16.2661 76.229 14.4983 78.2904 13.2302C80.3581 11.9621 82.7631 11.3312 85.5179 11.3312C87.6793 11.3312 89.3721 11.8746 90.5778 12.9553ZM76.3476 23.3499C79.7396 23.2188 82.432 22.7128 84.406 21.8257C86.5986 20.845 87.6917 19.4957 87.6917 17.7653C87.6917 17.0657 87.4481 16.516 86.9671 16.1099C86.4861 15.7039 85.799 15.504 84.9057 15.504C83.1628 15.504 81.6262 15.9475 80.3018 16.8408C78.9713 17.7341 77.9406 18.9834 77.2034 20.5951C76.8161 21.4384 76.535 22.3567 76.3476 23.3499ZM130.501 31.3147C131.669 31.3147 132.925 31.1336 134.256 30.765L134.249 30.7775C135.58 30.4152 136.861 29.8967 138.091 29.2408L139.609 32.9951C138.172 33.7822 136.636 34.4006 134.999 34.8379C133.362 35.2752 131.794 35.4938 130.301 35.4938C127.284 35.4938 124.935 34.7005 123.243 33.12C121.55 31.5396 120.706 29.3345 120.706 26.511C120.706 23.4688 121.281 20.8077 122.431 18.5401C123.58 16.2725 125.192 14.5047 127.253 13.2366C129.321 11.9685 131.726 11.3376 134.481 11.3376C136.642 11.3376 138.335 11.881 139.54 12.9617C140.746 14.0424 141.352 15.5541 141.352 17.4844C141.352 20.3517 139.884 22.613 136.948 24.2684C134.087 25.88 130.12 26.7483 125.067 26.8858C125.192 28.1788 125.673 29.2096 126.503 29.9779C127.472 30.8712 128.802 31.3147 130.501 31.3147ZM133.862 15.5042C132.119 15.5042 130.583 15.9477 129.258 16.841C127.928 17.7343 126.897 18.9836 126.16 20.5953C125.773 21.4386 125.491 22.3569 125.304 23.3501C128.696 23.2189 131.388 22.7129 133.362 21.8259C135.555 20.8451 136.648 19.4958 136.648 17.7655C136.648 17.0659 136.405 16.5161 135.924 16.1101C135.443 15.7041 134.755 15.5042 133.862 15.5042Z" fill="#212121"/>
</svg>
