<svg width="18" height="19" viewBox="0 0 18 19" fill="none" xmlns="http://www.w3.org/2000/svg">
<path d="M12.4645 1.19678V4.75233M5.35341 1.19678V4.75233M1.79785 8.30789H16.0201M1.79785 4.75233C1.79785 4.28084 1.98515 3.82865 2.31855 3.49525C2.65195 3.16186 3.10413 2.97456 3.57563 2.97456H14.2423C14.7138 2.97456 15.166 3.16186 15.4994 3.49525C15.8328 3.82865 16.0201 4.28084 16.0201 4.75233V15.419C16.0201 15.8905 15.8328 16.3427 15.4994 16.6761C15.166 17.0095 14.7138 17.1968 14.2423 17.1968H3.57563C3.10413 17.1968 2.65195 17.0095 2.31855 16.6761C1.98515 16.3427 1.79785 15.8905 1.79785 15.419V4.75233ZM5.35341 11.8634H7.13118V13.6412H5.35341V11.8634Z" stroke="#212121" stroke-width="2" stroke-linecap="round" stroke-linejoin="round"/>
</svg>
