<svg width="22" height="17" viewBox="0 0 22 17" fill="none" xmlns="http://www.w3.org/2000/svg">
<path fill-rule="evenodd" clip-rule="evenodd" d="M17.3685 1.75822C17.3685 1.18387 16.9029 0.718262 16.3285 0.718262C15.7542 0.718262 15.2886 1.18387 15.2886 1.75822V13.4206L12.5877 10.9858C12.1611 10.6012 11.5035 10.6353 11.1189 11.0619C10.7344 11.4885 10.7685 12.1461 11.1951 12.5307L15.6322 16.5307C16.0279 16.8874 16.6292 16.8874 17.0249 16.5307L21.462 12.5307C21.8886 12.1461 21.9227 11.4885 21.5381 11.0619C21.1536 10.6353 20.496 10.6012 20.0694 10.9858L17.3685 13.4206V1.75822ZM7.04064 0.985793C6.64495 0.629085 6.04368 0.629085 5.64799 0.985793L1.21083 4.98579C0.784229 5.37036 0.750157 6.02795 1.13473 6.45455C1.5193 6.88115 2.17688 6.91522 2.60348 6.53065L5.30436 4.09587V15.7582C5.30436 16.3326 5.76996 16.7982 6.34432 16.7982C6.91867 16.7982 7.38428 16.3326 7.38428 15.7582V4.09587L10.0852 6.53065C10.5118 6.91522 11.1693 6.88115 11.5539 6.45455C11.9385 6.02795 11.9044 5.37036 11.4778 4.98579L7.04064 0.985793Z" fill="#212121"/>
</svg>
