<svg width="19" height="19" viewBox="0 0 19 19" fill="none" xmlns="http://www.w3.org/2000/svg">
<path d="M9.80088 4.79432C8.92186 4.79432 8.06257 5.05498 7.33169 5.54334C6.6008 6.03171 6.03115 6.72583 5.69476 7.53795C5.35837 8.35006 5.27035 9.24369 5.44184 10.1058C5.61333 10.968 6.03662 11.7599 6.65819 12.3815C7.27976 13.003 8.07168 13.4263 8.93382 13.5978C9.79595 13.7693 10.6896 13.6813 11.5017 13.3449C12.3138 13.0085 13.0079 12.4388 13.4963 11.708C13.9847 10.9771 14.2453 10.1178 14.2453 9.23876M10.6898 1.28767C9.04182 1.1028 7.37715 1.43459 5.92603 2.23716C4.4749 3.03973 3.30904 4.27341 2.58971 5.76755C1.87038 7.26168 1.63314 8.94243 1.9108 10.5773C2.18846 12.2122 2.96729 13.7203 4.13958 14.8932C5.31186 16.0661 6.81965 16.8457 8.45438 17.1242C10.0891 17.4027 11.77 17.1663 13.2645 16.4477C14.759 15.7291 15.9932 14.5639 16.7965 13.1131C17.5998 11.6624 17.9325 9.99792 17.7484 8.34989M12.4675 6.5721V3.90543L15.1342 1.23877V3.90543H17.8009L15.1342 6.5721H12.4675ZM12.4675 6.5721L9.80088 9.23876M8.91199 9.23876C8.91199 9.47451 9.00564 9.7006 9.17234 9.8673C9.33904 10.034 9.56513 10.1277 9.80088 10.1277C10.0366 10.1277 10.2627 10.034 10.4294 9.8673C10.5961 9.7006 10.6898 9.47451 10.6898 9.23876C10.6898 9.00301 10.5961 8.77692 10.4294 8.61022C10.2627 8.44352 10.0366 8.34987 9.80088 8.34987C9.56513 8.34987 9.33904 8.44352 9.17234 8.61022C9.00564 8.77692 8.91199 9.00301 8.91199 9.23876Z" stroke="#212121" stroke-width="2" stroke-linecap="round" stroke-linejoin="round"/>
</svg>
