<svg width="21" height="21" viewBox="0 0 21 21" fill="none" xmlns="http://www.w3.org/2000/svg">
<path d="M8.76534 1.8367C7.20105 2.19934 5.76226 2.9739 4.59822 4.08004C3.43418 5.18617 2.58729 6.5836 2.14537 8.12738C1.70346 9.67115 1.68263 11.305 2.08503 12.8596C2.48744 14.4141 3.29843 15.8327 4.43389 16.9682C5.56935 18.1036 6.98792 18.9146 8.54246 19.317C10.097 19.7194 11.7309 19.6986 13.2747 19.2567C14.8184 18.8148 16.2159 17.9679 17.322 16.8038C18.4281 15.6398 19.2027 14.201 19.5653 12.6367C19.5653 12.3715 19.46 12.1171 19.2724 11.9296C19.0849 11.7421 18.8306 11.6367 18.5653 11.6367H14.7653C14.5835 12.3357 14.2203 12.9743 13.7124 13.4878C13.2045 14.0013 12.57 14.3716 11.8731 14.5611C11.1761 14.7506 10.4415 14.7526 9.74348 14.5669C9.04549 14.3813 8.40893 14.0145 7.89821 13.5038C7.3875 12.9931 7.02076 12.3566 6.83511 11.6586C6.64946 10.9606 6.65149 10.2259 6.84098 9.52898C7.03048 8.83203 7.40072 8.1975 7.91425 7.68961C8.42777 7.18172 9.06634 6.8185 9.76534 6.6367V2.6367C9.75292 2.51823 9.7171 2.4034 9.65996 2.29887C9.60282 2.19434 9.5255 2.1022 9.43248 2.02778C9.33946 1.95337 9.23259 1.89816 9.11807 1.86536C9.00355 1.83256 8.88366 1.82282 8.76534 1.8367Z" stroke="#212121" stroke-width="2" stroke-linecap="round" stroke-linejoin="round"/>
<path d="M13.7654 2.13672C15.0351 2.5838 16.1884 3.31002 17.1402 4.26188C18.0921 5.21374 18.8183 6.367 19.2654 7.63672H14.7654C14.4588 7.27767 14.1244 6.94331 13.7654 6.63672V2.13672Z" stroke="#212121" stroke-width="2" stroke-linecap="round" stroke-linejoin="round"/>
</svg>
