<svg width="20" height="19" viewBox="0 0 20 19" fill="none" xmlns="http://www.w3.org/2000/svg">
<path d="M7.99902 5.79932V3.79932C7.99902 3.26888 8.20974 2.76018 8.58481 2.3851C8.95988 2.01003 9.46859 1.79932 9.99902 1.79932H16.999C17.5295 1.79932 18.0382 2.01003 18.4132 2.3851C18.7883 2.76018 18.999 3.26888 18.999 3.79932V15.7993C18.999 16.3297 18.7883 16.8385 18.4132 17.2135C18.0382 17.5886 17.5295 17.7993 16.999 17.7993H9.99902C9.46859 17.7993 8.95988 17.5886 8.58481 17.2135C8.20974 16.8385 7.99902 16.3297 7.99902 15.7993V13.7993M12.999 9.79932H0.999023M0.999023 9.79932L3.99902 6.79932M0.999023 9.79932L3.99902 12.7993" stroke="black" stroke-width="2" stroke-linecap="round" stroke-linejoin="round"/>
</svg>
