<svg width="24" height="24" viewBox="0 0 24 24" fill="none" xmlns="http://www.w3.org/2000/svg">
<path d="M9 13L7.5 11.5M16 14L14 12M16 8C16 8 17.594 6 19 6C20.86 6 22 8 22 8C22 8 20.86 10 19 10C17.14 10 16 8 16 8ZM16 8C16 8 14 6.86 14 5C14 3.14 16 2 16 2C16 2 18 3.14 18 5C18 6.423 16 8 16 8ZM3.00012 21C3.00012 21 12.8341 17.511 15.6841 14.66C16.5251 13.8186 16.9975 12.6776 16.9975 11.488C16.9975 10.2983 16.5251 9.15738 15.6841 8.31597C15.2678 7.89938 14.7735 7.5689 14.2294 7.34342C13.6853 7.11795 13.1021 7.00189 12.5131 7.00189C11.9242 7.00189 11.341 7.11795 10.7969 7.34342C10.2528 7.5689 9.75844 7.89938 9.34212 8.31597C6.48212 11.177 2.99512 21.005 2.99512 21.005L3.00012 21Z" stroke="white" stroke-width="2" stroke-linecap="round" stroke-linejoin="round"/>
</svg>
